<svg width="60" height="60" viewBox="0 0 60 60" fill="none" xmlns="http://www.w3.org/2000/svg">
<rect width="60" height="60" rx="30" fill="#FABB46"/>
<path d="M24.0611 18.894C23.9478 19.0082 23.858 19.1438 23.7967 19.2931C23.7354 19.4424 23.7038 19.6024 23.7038 19.764C23.7038 19.9256 23.7354 20.0856 23.7967 20.2349C23.858 20.3841 23.9478 20.5198 24.0611 20.634L33.3561 30.0148L24.0611 39.3956C23.8458 39.6288 23.7286 39.9372 23.7342 40.2558C23.7397 40.5745 23.8677 40.8785 24.091 41.1039C24.3142 41.3292 24.6155 41.4583 24.9312 41.4639C25.247 41.4695 25.5526 41.3513 25.7836 41.134L35.9398 30.884C36.1681 30.6534 36.2963 30.3408 36.2963 30.0148C36.2963 29.6889 36.1681 29.3762 35.9398 29.1456L25.7836 18.8956C25.5551 18.6653 25.2453 18.5359 24.9223 18.5359C24.5994 18.5359 24.2896 18.6636 24.0611 18.894Z" fill="black"/>
</svg>
