<svg width="60" height="60" viewBox="0 0 60 60" fill="none" xmlns="http://www.w3.org/2000/svg">
<rect width="60" height="60" rx="30" fill="#FABB46"/>
<path d="M35.9389 18.894C36.0522 19.0082 36.142 19.1438 36.2033 19.2931C36.2646 19.4424 36.2962 19.6024 36.2962 19.764C36.2962 19.9256 36.2646 20.0856 36.2033 20.2349C36.142 20.3841 36.0522 20.5198 35.9389 20.634L26.6439 30.0148L35.9389 39.3956C36.1542 39.6288 36.2714 39.9372 36.2658 40.2558C36.2603 40.5745 36.1323 40.8785 35.909 41.1039C35.6858 41.3292 35.3845 41.4583 35.0688 41.4639C34.753 41.4695 34.4474 41.3513 34.2164 41.134L24.0602 30.884C23.8319 30.6534 23.7037 30.3408 23.7037 30.0148C23.7037 29.6889 23.8319 29.3762 24.0602 29.1456L34.2164 18.8956C34.4449 18.6653 34.7547 18.5359 35.0777 18.5359C35.4006 18.5359 35.7104 18.6636 35.9389 18.894Z" fill="black"/>
</svg>
