<svg width="38" height="38" viewBox="0 0 38 38" fill="none" xmlns="http://www.w3.org/2000/svg">
    <path d="M33.746 15.934a4.754 4.754 0 0 0 1.879-3.787c0-2.628-2.13-4.765-4.75-4.765s-4.75 2.137-4.75 4.765a4.77 4.77 0 0 0 1.89 3.796c-.12.054-.245.1-.362.161a.794.794 0 0 0 .728 1.41 5.422 5.422 0 0 1 2.494-.602c3.055 0 5.542 2.493 5.542 5.559v3.176a2.382 2.382 0 0 1-2.375 2.382h-4.006a.79.79 0 0 0-.792.794.796.796 0 0 0 .792.795h4.006A3.969 3.969 0 0 0 38 25.648V22.47a7.155 7.155 0 0 0-4.254-6.537zm-6.038-3.787a3.175 3.175 0 0 1 3.167-3.176 3.175 3.175 0 0 1 3.167 3.176 3.175 3.175 0 0 1-3.167 3.176 3.175 3.175 0 0 1-3.167-3.176zm-17.022 5.028a.797.797 0 0 0-.339-1.07c-.117-.062-.241-.108-.362-.162a4.75 4.75 0 0 0 1.89-3.796c0-2.628-2.13-4.765-4.75-4.765s-4.75 2.137-4.75 4.765a4.76 4.76 0 0 0 1.88 3.787A7.154 7.154 0 0 0 0 22.471v3.176c0 2.19 1.776 3.97 3.958 3.97h4.006a.79.79 0 0 0 .792-.794.795.795 0 0 0-.792-.794H3.958a2.382 2.382 0 0 1-2.375-2.382v-3.176c0-3.066 2.487-5.56 5.542-5.56.874 0 1.737.209 2.494.603a.792.792 0 0 0 1.067-.34zm-6.728-5.028a3.175 3.175 0 0 1 3.167-3.176 3.175 3.175 0 0 1 3.167 3.176 3.175 3.175 0 0 1-3.167 3.176 3.175 3.175 0 0 1-3.167-3.176zm18.189 2.982a5.55 5.55 0 0 0 2.395-4.57C24.542 7.494 22.055 5 19 5a5.56 5.56 0 0 0-3.147 10.129c-3.249 1.269-5.561 4.434-5.561 8.136v4.764c0 2.19 1.775 3.971 3.958 3.971h9.5a3.969 3.969 0 0 0 3.958-3.97v-4.765c0-3.703-2.312-6.867-5.561-8.136zm-7.105-4.57c0-2.19 1.775-3.97 3.958-3.97a3.969 3.969 0 0 1 3.958 3.97c0 2.19-1.775 3.97-3.958 3.97a3.969 3.969 0 0 1-3.958-3.97zm11.083 17.47a2.382 2.382 0 0 1-2.375 2.383h-9.5a2.382 2.382 0 0 1-2.375-2.383v-4.764c0-3.94 3.196-7.147 7.125-7.147s7.125 3.206 7.125 7.147v4.764z" fill="#333"/>
</svg>
