<svg width="34" height="34" viewBox="0 0 34 34" fill="none" xmlns="http://www.w3.org/2000/svg">
    <g clip-path="url(#jajoe18i7a)">
        <path d="M34 17c0-9.389-7.611-17-17-17S0 7.611 0 17s7.611 17 17 17 17-7.611 17-17z" fill="url(#djrfe1q3lb)"/>
        <path d="M34 17c0-9.389-7.611-17-17-17S0 7.611 0 17s7.611 17 17 17 17-7.611 17-17z" fill="#fff"/>
        <path d="M16.652 23V11.95l.969 1.003h-3.485V11.1h4.726V23h-2.21z" fill="#333"/>
    </g>
    <defs>
        <linearGradient id="djrfe1q3lb" x1="17" y1="0" x2="17" y2="34" gradientUnits="userSpaceOnUse">
            <stop stop-color="#F6EED8"/>
            <stop offset=".548" stop-color="#fff"/>
            <stop offset="1" stop-color="#fff"/>
        </linearGradient>
        <clipPath id="jajoe18i7a">
            <path fill="#fff" d="M0 0h34v34H0z"/>
        </clipPath>
    </defs>
</svg>
