<svg width="38" height="38" viewBox="0 0 38 38" fill="none" xmlns="http://www.w3.org/2000/svg">
    <g clip-path="url(#vxh9vx7roa)">
        <path fill-rule="evenodd" clip-rule="evenodd" d="M11.88 35.357a3.4 3.4 0 0 0-3.4-3.4H4.4a3.4 3.4 0 0 0-3.4 3.4v2.04a.68.68 0 0 0 .68.68h9.52a.68.68 0 0 0 .68-.68v-2.04zm24.477 0a3.4 3.4 0 0 0-3.4-3.4h-4.08a3.4 3.4 0 0 0-3.399 3.4v2.04a.68.68 0 0 0 .68.68h9.52a.68.68 0 0 0 .68-.68v-2.04zm-12.239 0a3.4 3.4 0 0 0-3.4-3.4h-4.08a3.4 3.4 0 0 0-3.399 3.4v2.04a.68.68 0 0 0 .68.68h9.52a.68.68 0 0 0 .68-.68v-2.04zm-13.599 0v1.36H2.36v-1.36a2.04 2.04 0 0 1 2.04-2.04h4.08a2.04 2.04 0 0 1 2.04 2.04zm24.478 0v1.36h-8.16v-1.36a2.04 2.04 0 0 1 2.04-2.04h4.08a2.04 2.04 0 0 1 2.04 2.04zm-12.239 0v1.36h-8.16v-1.36a2.04 2.04 0 0 1 2.04-2.04h4.08a2.04 2.04 0 0 1 2.04 2.04zM9.84 27.943a3.462 3.462 0 0 0-3.397-4.145h-.005a3.463 3.463 0 0 0-3.397 4.145l.363 1.816a2.735 2.735 0 0 0 2.683 2.198h.707c1.306 0 2.428-.92 2.683-2.198l.363-1.816zm24.478 0a3.462 3.462 0 0 0-3.397-4.145h-.005a3.463 3.463 0 0 0-3.397 4.145l.363 1.816a2.735 2.735 0 0 0 2.683 2.198h.707c1.306 0 2.428-.92 2.683-2.198l.363-1.816zm-12.239 0a3.462 3.462 0 0 0-3.397-4.145h-.005a3.463 3.463 0 0 0-3.397 4.145l.363 1.816a2.735 2.735 0 0 0 2.683 2.198h.707c1.306 0 2.427-.92 2.683-2.198l.363-1.816zm10.907-.267-.364 1.815a1.377 1.377 0 0 1-1.349 1.107h-.708a1.378 1.378 0 0 1-1.35-1.107l-.363-1.814a2.104 2.104 0 0 1 2.064-2.519h.005a2.103 2.103 0 0 1 2.065 2.518zm-24.478 0-.364 1.815a1.377 1.377 0 0 1-1.349 1.107h-.708a1.378 1.378 0 0 1-1.35-1.107l-.363-1.814a2.104 2.104 0 0 1 2.064-2.519h.005a2.103 2.103 0 0 1 2.065 2.518zm12.239 0-.363 1.815a1.377 1.377 0 0 1-1.35 1.107h-.708a1.378 1.378 0 0 1-1.35-1.107l-.364-1.814a2.104 2.104 0 0 1 2.065-2.519h.005a2.103 2.103 0 0 1 2.065 2.518zM15.27 17.337v2.364c0 .488.216.948.614 1.313.478.44 1.242.744 2.11.744h1.366c.87 0 1.633-.304 2.11-.744.4-.365.616-.825.616-1.313v-2.364a5.652 5.652 0 0 0 2.105-4.418c0-3.107-2.475-5.623-5.513-5.623s-5.513 2.516-5.513 5.623c0 1.794.824 3.389 2.105 4.418zm-9.583-.643s-.187-.375-.616-.375H4.4a2.044 2.044 0 0 1-2.04-2.04V3.399A2.04 2.04 0 0 1 4.4 1.36h28.557a2.04 2.04 0 0 1 2.04 2.04v10.88a2.044 2.044 0 0 1-2.04 2.04h-.671c-.376 0-.678.499-.616.375l-1.517 3.033-2.07-3.105a.682.682 0 0 0-.565-.303h-2.04a.68.68 0 1 0 0 1.36h1.675l2.519 3.776a.68.68 0 0 0 1.174-.072l1.852-3.704h.26a3.4 3.4 0 0 0 3.4-3.4V3.399A3.4 3.4 0 0 0 32.957 0H4.4A3.4 3.4 0 0 0 1 3.4v10.879a3.4 3.4 0 0 0 3.4 3.4h.26l1.852 3.704a.678.678 0 0 0 1.173.072l2.519-3.776h1.675a.68.68 0 0 0 0-1.36H9.84a.681.681 0 0 0-.565.303l-2.07 3.105-1.516-3.033zm15.039 1.446a5.386 5.386 0 0 1-2.048.402 5.386 5.386 0 0 1-2.048-.402v1.56c0 .17.134.3.299.41.272.184.651.288 1.066.288h1.365c.415 0 .794-.104 1.066-.288.165-.11.3-.24.3-.41v-1.56zm-2.048-9.484c2.296 0 4.153 1.914 4.153 4.263 0 2.348-1.857 4.263-4.153 4.263-2.297 0-4.153-1.914-4.153-4.263s1.856-4.263 4.153-4.263zm6.501 1.206 2.06-1.133a.68.68 0 1 0-.656-1.191l-2.058 1.131a.68.68 0 1 0 .654 1.193zM12.831 8.669l-2.057-1.131a.68.68 0 1 0-.656 1.191l2.059 1.133a.68.68 0 0 0 .654-1.193zm2.831-2.475-1.24-2.11a.68.68 0 1 0-1.172.69l1.24 2.11a.681.681 0 0 0 1.244-.174.68.68 0 0 0-.072-.516zm7.205.69 1.24-2.11a.682.682 0 0 0-.492-1.019.68.68 0 0 0-.68.329l-1.24 2.11a.68.68 0 0 0 1.172.69zm-3.509-1.425v-2.06a.68.68 0 1 0-1.36 0v2.06a.68.68 0 0 0 1.36 0z" fill="#333"/>
    </g>
    <defs>
        <clipPath id="vxh9vx7roa">
            <path fill="#fff" d="M0 0h38v38H0z"/>
        </clipPath>
    </defs>
</svg>
