<svg width="38" height="38" viewBox="0 0 38 38" fill="none" xmlns="http://www.w3.org/2000/svg">
    <path d="m33.714 18.947-4.134-6.384a1.724 1.724 0 0 0-1.453-.79H9.887a1.725 1.725 0 0 0-1.453.788l-4.147 6.385a1.735 1.735 0 0 0 .16 2.095l13.26 14.887a1.732 1.732 0 0 0 2.585 0L33.554 21.04c.517-.58.582-1.44.16-2.093zm-6.425-5.69-3.477 5.377-3.479-5.377h6.956zm-4.84 6H15.55l3.45-5.33 3.448 5.33zm-4.784-6-3.47 5.362-3.468-5.362h6.938zm-8.31.611 3.486 5.39H5.855l3.5-5.39zm-3.187 6.874h7.47l3.95 12.82-11.42-12.82zM19 33.102l-3.808-12.36h7.616L19 33.102zm1.412.46 3.95-12.82h7.47l-11.42 12.82zm4.765-14.304 3.483-5.386 3.488 5.386h-6.97zm-22.925 0H.742a.742.742 0 0 0 0 1.484h1.51a.742.742 0 0 0 0-1.484zm35.007 0h-1.51a.742.742 0 0 0 0 1.484h1.51a.742.742 0 0 0 0-1.484zm-4.814-12.69a.742.742 0 0 0-1.05 0L28.93 9.035a.742.742 0 0 0 1.05 1.05l2.465-2.466c.29-.29.29-.76 0-1.05zM9.103 9.022 6.637 6.556a.742.742 0 0 0-1.05 1.05l2.466 2.464a.74.74 0 0 0 1.05 0c.29-.29.29-.76 0-1.049zM19.019 1a.742.742 0 0 0-.742.742V6.58a.742.742 0 1 0 1.484 0V1.742A.742.742 0 0 0 19.019 1zm.524 7.565a.747.747 0 0 0-.524-.218.748.748 0 0 0-.525.218.746.746 0 0 0 .525 1.267.744.744 0 0 0 .742-.742.745.745 0 0 0-.218-.525z" fill="#333"/>
</svg>
