<svg width="60" height="60" viewBox="0 0 60 60" fill="none" xmlns="http://www.w3.org/2000/svg">
    <path fill-rule="evenodd" clip-rule="evenodd" d="m17.63 54.2.388.915c.259.616.26 1.236.004 1.855l-.002.004a2.384 2.384 0 0 1-1.333 1.31l-.003.002-3.751 1.528c-1.253.514-2.704-.076-3.223-1.306L3.357 43.512a2.289 2.289 0 0 1-.005-1.856 2.37 2.37 0 0 1 1.333-1.314L8.44 38.81c1.251-.51 2.697.074 3.222 1.305v.001l.333.786a463.82 463.82 0 0 0 5.502-2.592c.943-.454 1.808-.852 2.642-1.153V35.71c0-1.095.723-2.032 1.722-2.373-.489-4.48-1.928-6.157-3.029-7.896-.88-1.394-1.575-2.821-1.575-5.42 0-6.01 4.962-10.887 11.082-10.887 6.116 0 11.078 4.876 11.078 10.888 0 .217-.005.427-.014.628-.116 2.421-.882 3.756-1.8 5.162-.803 1.23-1.737 2.52-2.334 4.895-.19.757-.346 1.623-.456 2.63a2.513 2.513 0 0 1 1.722 2.373v3.582c0 .501-.152.97-.413 1.363l.178.047a4.166 4.166 0 0 1 2.632 2.088l9.694-2.794c4.179-1.205 6.49-.326 7.505 1.023.677.9.853 2.063.6 3.214-.356 1.618-1.572 3.19-3.23 3.819l-14.65 5.548c-2.463.931-5.752 2.233-8.394 1.48l-7.805-2.226h-.001a3.641 3.641 0 0 0-2.668.222l-2.354 1.126zm-1.211 1.566L10.066 40.77a.743.743 0 0 0-.962-.39L5.35 41.912a.71.71 0 0 0-.399.394.674.674 0 0 0 .002.548v.003c2.118 5 4.238 9.998 6.355 14.998a.74.74 0 0 0 .96.389l3.75-1.528h.002a.725.725 0 0 0 .402-.396.703.703 0 0 0-.003-.554zM21.87 36.68c2.173-.395 4.39.055 7.502 2.197l4.642 1.222a.818.818 0 0 0 .792-.808V35.71a.813.813 0 0 0-.464-.728.823.823 0 0 0-.36-.083H22.694a.82.82 0 0 0-.825.811v.971zm-4.906 15.948 2.262-1.082c1.266-.606 2.56-.713 3.91-.326l7.804 2.225c1.095.312 2.32.16 3.528-.144 1.33-.335 2.638-.864 3.762-1.29l14.649-5.547c1.118-.424 1.921-1.5 2.162-2.592.144-.657.087-1.329-.3-1.842-.329-.437-.886-.737-1.685-.857-.982-.149-2.278-.026-3.942.454l-9.717 2.801c.027.431-.015.874-.134 1.312-.596 2.186-2.905 3.497-5.128 2.908l-9.406-2.475a.865.865 0 0 1-.526-.396.839.839 0 0 1 .317-1.162.879.879 0 0 1 .656-.085l9.407 2.476h.001c1.304.346 2.658-.424 3.007-1.706.35-1.282-.433-2.613-1.738-2.956l-7.078-1.864a.87.87 0 0 1-.276-.128c-3.087-2.153-5.092-2.422-7.239-1.772-.947.287-1.916.736-3.002 1.258a467.99 467.99 0 0 1-5.596 2.636l4.302 10.154zm6.623-19.43h3.887V22.382l-3.949-2.242a.853.853 0 0 1-.403-.516.838.838 0 0 1 .087-.645.864.864 0 0 1 .525-.396.879.879 0 0 1 .656.085l3.95 2.242 3.946-2.242a.88.88 0 0 1 .656-.085c.222.058.41.2.526.396a.838.838 0 0 1 .086.645.852.852 0 0 1-.402.516l-3.947 2.242v10.816h3.884c.12-1.112.292-2.067.502-2.9.658-2.619 1.672-4.05 2.557-5.405.77-1.18 1.43-2.293 1.527-4.324.009-.175.013-.358.013-.548 0-5.073-4.187-9.188-9.348-9.188-5.165 0-9.352 4.115-9.352 9.188 0 2.752.94 3.947 1.94 5.48 1.068 1.64 2.223 3.61 2.66 7.697zm18.747 5.015h1.898c.115-2.728 3.456-4.088 5.5-2.238l1.342-1.32c-1.882-2.008-.498-5.292 2.277-5.404v-1.866c-2.775-.112-4.159-3.395-2.277-5.404l-1.343-1.32c-2.043 1.85-5.384.491-5.499-2.238h-1.907a.847.847 0 0 1-.296.506.875.875 0 0 1-.557.2.858.858 0 0 1-.865-.85c0-.86.71-1.556 1.583-1.556h2.187c.874 0 1.582.696 1.582 1.555 0 1.36 1.676 2.042 2.655 1.08a1.605 1.605 0 0 1 2.24 0l1.545 1.521a1.537 1.537 0 0 1 0 2.2c-.978.962-.284 2.609 1.1 2.609.876 0 1.582.697 1.582 1.556v2.148c0 .86-.706 1.556-1.583 1.556-1.383 0-2.077 1.647-1.099 2.608a1.54 1.54 0 0 1 0 2.202l-1.546 1.519a1.605 1.605 0 0 1-2.24 0c-.977-.961-2.654-.279-2.654 1.08 0 .862-.708 1.556-1.583 1.556H42.19c-.874 0-1.583-.694-1.583-1.556 0-.782-.554-1.338-1.21-1.49a.865.865 0 0 1-.537-.38.838.838 0 0 1 .28-1.17.878.878 0 0 1 .654-.105c1.341.31 2.475 1.429 2.54 3zm.95-4.369c-3.097 0-5.623-2.483-5.623-5.526 0-3.044 2.526-5.526 5.623-5.526 3.096 0 5.623 2.482 5.623 5.526 0 3.043-2.527 5.526-5.623 5.526zm0-1.7c2.143 0 3.892-1.719 3.892-3.826s-1.749-3.825-3.892-3.825c-2.144 0-3.892 1.718-3.892 3.825s1.748 3.826 3.892 3.826zM29.204 4.08c0 .469-.387.85-.864.85a.858.858 0 0 1-.866-.85V.85c0-.469.388-.85.866-.85.477 0 .865.381.865.85v3.23zM19.93 6.064a.843.843 0 0 1-.316 1.162.874.874 0 0 1-1.182-.31L16.788 4.12a.843.843 0 0 1 .317-1.161.874.874 0 0 1 1.181.31l1.643 2.794zm-7.02 6.279a.853.853 0 0 1 .403.516c.059.218.028.45-.087.645a.864.864 0 0 1-.525.396.878.878 0 0 1-.657-.085L9.2 12.2a.843.843 0 0 1-.316-1.161.874.874 0 0 1 1.182-.31l2.843 1.614zm25.336-5.428a.874.874 0 0 1-1.182.311.843.843 0 0 1-.316-1.162L38.39 3.27a.864.864 0 0 1 .526-.396.879.879 0 0 1 .656.086.853.853 0 0 1 .403.516c.059.218.028.45-.087.645l-1.643 2.794zm6.388 6.9a.879.879 0 0 1-.656.085.864.864 0 0 1-.525-.396.838.838 0 0 1-.087-.645.853.853 0 0 1 .403-.516l2.843-1.615a.874.874 0 0 1 1.181.31.843.843 0 0 1-.316 1.162l-2.843 1.615z" fill="url(#e977zzioga)"/>
    <defs>
        <linearGradient id="e977zzioga" x1="3.158" y1="30" x2="66.933" y2="30.207" gradientUnits="userSpaceOnUse">
            <stop stop-color="#FABB46"/>
            <stop offset="1" stop-color="#FBD346"/>
        </linearGradient>
    </defs>
</svg>
