<svg width="60" height="60" viewBox="0 0 60 60" fill="none" xmlns="http://www.w3.org/2000/svg">
    <g clip-path="url(#4xe4z1lzta)" fill="#333">
        <path d="M16.872 59.063H3.412a.938.938 0 0 1-.842-1.352c1.689-3.434 2.426-6.668 2.131-9.352a3.07 3.07 0 0 0-.75-1.746 12.723 12.723 0 0 1-3.014-8.218c0-7.013 5.706-12.718 12.718-12.718 7.013 0 12.718 5.705 12.718 12.718 0 .427-.022.858-.064 1.282-.067.668.041 1.23.35 1.825.388.743.925 1.49 1.598 2.22a.963.963 0 0 1 .049.057c.59.754.6 1.403.505 1.815-.148.646-.642 1.18-1.47 1.587a.372.372 0 0 0-.027.016c-.01.066-.022.287.133.83.139.383.09.814-.138 1.192-.13.215-.312.407-.524.572.256.31.436.663.468 1.056.025.315-.03.917-.683 1.42l-.01.01c-.042.03-.248.247-.26 1.497.02.558-.186 1.055-.578 1.4-.66.584-1.79.712-3.555.406a.849.849 0 0 1-.047-.01c-1.31-.297-2.324-.217-3.012.24-.655.434-1.097 1.268-1.314 2.48a.937.937 0 0 1-.922.773zM4.875 57.187h11.247c.368-1.338 1.022-2.325 1.95-2.94 1.127-.748 2.62-.92 4.44-.51 1.261.216 1.758.11 1.914.055v-.01c.01-1.478.259-2.334.847-2.873-.13-.13-.369-.322-.767-.539a.938.938 0 0 1 .372-1.758c.259-.02.546-.153.71-.266-.198-.742-.438-2.141.898-2.833a.713.713 0 0 1 .02-.01c.32-.157.436-.28.47-.324a.796.796 0 0 0-.127-.217c-.771-.842-1.395-1.714-1.852-2.594a4.973 4.973 0 0 1-.554-2.878c.037-.364.055-.73.055-1.095 0-5.979-4.864-10.843-10.843-10.843-5.978 0-10.842 4.864-10.842 10.843 0 2.564.911 5.052 2.568 7.006a4.97 4.97 0 0 1 1.184 2.753c.293 2.672-.29 5.771-1.69 9.033zM19.653 24.41a.938.938 0 0 1-.938-.937v-3.925h-1.082a3.328 3.328 0 0 1-3.324-3.324V4.262A3.328 3.328 0 0 1 17.633.938h17.482a3.328 3.328 0 0 1 3.324 3.324v11.962a3.328 3.328 0 0 1-3.324 3.324H24.723l-4.394 4.574a.936.936 0 0 1-.676.288zm-2.02-21.598c-.799 0-1.45.65-1.45 1.45v11.962c0 .8.651 1.45 1.45 1.45h2.02a.937.937 0 0 1 .937.937v2.533l3.057-3.183a.939.939 0 0 1 .677-.288h10.79c.8 0 1.45-.65 1.45-1.449V4.262c0-.8-.65-1.45-1.45-1.45h-17.48z"/>
        <path d="M32.448 15.16H20.3a.937.937 0 1 1 0-1.875h12.148a.937.937 0 1 1 0 1.875zm0-3.98H20.3a.937.937 0 1 1 0-1.876h12.148a.937.937 0 1 1 0 1.875zm0-3.982H20.3a.937.937 0 1 1 0-1.875h12.148a.937.937 0 1 1 0 1.875z"/>
        <path d="M37.622 27.23a.938.938 0 0 1-.676-.288l-3.255-3.39H25.93a2.745 2.745 0 0 1-2.742-2.741v-1.994a.937.937 0 1 1 1.875 0v1.994c0 .478.389.867.867.867h8.16c.255 0 .5.104.676.288l1.919 1.997v-1.348a.938.938 0 0 1 .937-.937h1.528a.868.868 0 0 0 .867-.867v-9.046a.868.868 0 0 0-.867-.868h-1.648a.938.938 0 0 1 0-1.875h1.648a2.745 2.745 0 0 1 2.742 2.743v9.046a2.745 2.745 0 0 1-2.742 2.742h-.59v2.74a.938.938 0 0 1-.938.937zm18.966 31.832h-13.46a.938.938 0 0 1-.922-.772c-.217-1.212-.659-2.046-1.314-2.48-.688-.457-1.701-.537-3.013-.24a1.085 1.085 0 0 1-.046.01c-1.765.306-2.894.177-3.555-.405-.392-.346-.597-.843-.579-1.4-.011-1.251-.217-1.468-.258-1.5l-.012-.008c-.652-.503-.707-1.105-.682-1.42.032-.393.212-.746.468-1.056a2.139 2.139 0 0 1-.524-.572 1.383 1.383 0 0 1-.138-1.193c.155-.542.144-.763.133-.83a.508.508 0 0 0-.028-.015c-.827-.408-1.321-.941-1.47-1.587-.094-.412-.083-1.061.506-1.815a1.03 1.03 0 0 1 .05-.057c.672-.73 1.21-1.477 1.596-2.22.31-.595.418-1.157.351-1.825a12.895 12.895 0 0 1-.064-1.282c0-7.013 5.705-12.718 12.718-12.718 7.012 0 12.718 5.705 12.718 12.718 0 3.008-1.07 5.927-3.013 8.218a3.069 3.069 0 0 0-.751 1.746c-.295 2.684.442 5.918 2.13 9.352a.937.937 0 0 1-.84 1.352zm-12.71-1.874h11.247c-1.4-3.263-1.983-6.362-1.69-9.034a4.97 4.97 0 0 1 1.184-2.753 10.845 10.845 0 0 0 2.569-7.006c0-5.979-4.865-10.843-10.843-10.843-5.979 0-10.843 4.864-10.843 10.843 0 .364.018.733.055 1.095a4.974 4.974 0 0 1-.554 2.878c-.457.88-1.08 1.752-1.852 2.593a.797.797 0 0 0-.127.218c.034.044.15.166.47.323l.02.01c1.336.692 1.096 2.091.897 2.834.165.113.452.245.71.266a.938.938 0 0 1 .373 1.758c-.398.217-.638.409-.767.539.588.539.836 1.394.847 2.873v.01c.156.055.653.16 1.915-.056 1.819-.409 3.312-.237 4.439.51.928.616 1.583 1.603 1.95 2.941zM7.358 42.648a.937.937 0 0 1-.8-.447 8.2 8.2 0 0 1-1.21-4.292c0-4.53 3.687-8.217 8.217-8.217.588 0 1.166.06 1.729.181a.934.934 0 0 1 1.069-.72.936.936 0 0 1 .608.38l1.159 1.622a.937.937 0 0 1-.673 1.479l-1.984.192a.938.938 0 0 1-.991-1.194 6.349 6.349 0 0 0-7.258 6.277 6.325 6.325 0 0 0 .932 3.311.938.938 0 0 1-.798 1.428zm3.55 4.04a.936.936 0 0 1-.768-.4l-1.144-1.633a.937.937 0 0 1 .686-1.471l1.986-.174a.937.937 0 0 1 .988 1.175 6.349 6.349 0 0 0 7.252-6.277 6.328 6.328 0 0 0-.933-3.31.936.936 0 1 1 1.598-.98 8.2 8.2 0 0 1 1.21 4.291c0 4.531-3.687 8.217-8.218 8.217-.587 0-1.17-.063-1.74-.186a.934.934 0 0 1-.917.748z"/>
    </g>
    <defs>
        <clipPath id="4xe4z1lzta">
            <path fill="#fff" d="M0 0h60v60H0z"/>
        </clipPath>
    </defs>
</svg>
