<svg width="34" height="34" viewBox="0 0 34 34" fill="none" xmlns="http://www.w3.org/2000/svg">
    <g clip-path="url(#uideaxc57a)">
        <path d="M34 17c0-9.389-7.611-17-17-17S0 7.611 0 17s7.611 17 17 17 17-7.611 17-17z" fill="url(#e1ebvehnqb)"/>
        <path d="M34 17c0-9.389-7.611-17-17-17S0 7.611 0 17s7.611 17 17 17 17-7.611 17-17z" fill="#fff"/>
        <path d="M13.595 23v-1.479l4.726-4.488c.397-.374.691-.703.884-.986.193-.283.317-.544.374-.782.068-.25.102-.482.102-.697 0-.544-.187-.963-.561-1.258-.374-.306-.924-.459-1.649-.459-.578 0-1.105.102-1.581.306a3.197 3.197 0 0 0-1.207.935l-1.547-1.19c.465-.623 1.088-1.105 1.87-1.445.793-.351 1.677-.527 2.652-.527.861 0 1.61.142 2.244.425.646.272 1.139.663 1.479 1.173.351.51.527 1.116.527 1.819 0 .385-.051.77-.153 1.156-.102.374-.295.77-.578 1.19-.283.42-.697.89-1.241 1.411l-4.063 3.859-.459-.833h6.953V23h-8.772z" fill="#333"/>
    </g>
    <defs>
        <linearGradient id="e1ebvehnqb" x1="17" y1="0" x2="17" y2="34" gradientUnits="userSpaceOnUse">
            <stop stop-color="#F6EED8"/>
            <stop offset=".548" stop-color="#fff"/>
            <stop offset="1" stop-color="#fff"/>
        </linearGradient>
        <clipPath id="uideaxc57a">
            <path fill="#fff" d="M0 0h34v34H0z"/>
        </clipPath>
    </defs>
</svg>
