<svg width="60" height="60" viewBox="0 0 60 60" fill="none" xmlns="http://www.w3.org/2000/svg">
    <path d="M48 50.078a1 1 0 0 0-.29-.791l-2-2.001a1 1 0 0 0-1.222-.15L40 49.828l-3.536-2.123a4.997 4.997 0 0 0-2.572-.712h-1.1a4.503 4.503 0 0 0-2.794-8.032 4.499 4.499 0 0 0-4.25 3.022 4.504 4.504 0 0 0 1.456 5.01h-1.1c-.906 0-1.796.246-2.573.712L20 49.828l-4.485-2.692a1 1 0 0 0-1.222.15l-2 2.001a1.001 1.001 0 0 0 .126 1.522l7 5.003a1.007 1.007 0 0 0 .953.115L24 54.474V60h2v-7.004a1.002 1.002 0 0 0-1.372-.93l-4.492 1.802-5.594-4.003.613-.614 4.33 2.602a1 1 0 0 0 1.03 0l4.049-2.43c.466-.281 1-.43 1.544-.43h7.784c.544.001 1.077.149 1.544.428l4.049 2.431a1 1 0 0 0 1.03 0l4.33-2.601.613.614-5.594 4.003-4.492-1.801a.999.999 0 0 0-1.372.93V60h2v-5.526l3.628 1.453a.999.999 0 0 0 .953-.115l7-5.003a1 1 0 0 0 .419-.731zm-18-4.086a2.498 2.498 0 0 1-2.452-2.99 2.503 2.503 0 0 1 1.964-1.965 2.499 2.499 0 0 1 2.798 3.411A2.502 2.502 0 0 1 30 45.992zm21.691-8.337a22.903 22.903 0 0 1-4.547 7.67l1.49 1.335a24.865 24.865 0 0 0 4.943-8.34l-1.886-.666zm1.886-16.01A25.249 25.249 0 0 0 38.333 6.394l-.666 1.887a23.211 23.211 0 0 1 14.024 14.032l1.886-.666zm-47.154 0 1.886.667A23.227 23.227 0 0 1 22.333 8.28l-.666-1.887A25.23 25.23 0 0 0 6.423 21.646zm1.886 16.01-1.886.666a24.864 24.864 0 0 0 4.943 8.339l1.49-1.335a22.903 22.903 0 0 1-4.547-7.67zM20 21.978v4.245h2v-2.017l7.335 6.525a1 1 0 0 0 1.4-.07L41 19.535v1.686h2v-4.245a1.001 1.001 0 0 0-1-1h-4.243v2h1.959l-9.785 10.607-6.301-5.604h1.613v-2H21a1 1 0 0 0-1 1zm4-10.006h12a.999.999 0 0 0 .857-1.516l-6-10.005a1.038 1.038 0 0 0-1.714 0l-6 10.005A1 1 0 0 0 24 11.973zm6-9.06 4.234 7.06h-8.468L30 2.912zM1 35.986h10a1 1 0 0 0 1-1V24.98a1 1 0 0 0-1-1H1a1 1 0 0 0-1 1v10.006a1.001 1.001 0 0 0 1 1zM2 25.98h8v8.005H2V25.98zm52-2.001a5.997 5.997 0 0 0-5.543 3.706 6.007 6.007 0 0 0 4.373 8.185 5.997 5.997 0 0 0 6.159-2.552 6.006 6.006 0 0 0-.748-7.579A6.004 6.004 0 0 0 54 23.98zm0 10.006a3.998 3.998 0 0 1-3.696-2.471 4.003 4.003 0 0 1 2.916-5.457A3.998 3.998 0 0 1 58 29.983a4.003 4.003 0 0 1-4 4.003z" fill="#333"/>
</svg>
