<svg width="60" height="60" viewBox="0 0 60 60" fill="none" xmlns="http://www.w3.org/2000/svg">
    <path d="M12.206 36.811a5.914 5.914 0 0 1-2.767-1.838.875.875 0 0 1-.104-.972.88.88 0 0 1 .22-.267.9.9 0 0 1 1.251.115c.63.749 1.435 1.202 2.39 1.402 1.899.4 3.037-.081 3.435-1.906.359-1.65.012-3.886-.567-5.82-.225.029-.564.078-.788.043-1.522-.19-3.5.375-5.152 1.799-1.301 1.124-2.39 2.787-2.885 5.046.77 1.274.867 3.208.951 4.86.014.312.554.483 1.171.586.71.115 1.584.076 2.263-.146.459-.146.796-.35.774-.574-.088-.818-.088-1.45-.192-2.328zm-6.628-1.684c-1.797-2.16-2.524-4.661-2.408-6.974.116-2.352 1.113-4.653 2.928-6.139 1.277-1.046 2.903-1.645 4.773-1.556a3.481 3.481 0 0 0 2.289-.681c2.097-1.531 4.085-1.506 5.55-.707 3.062 1.674 3.503 6.517-.911 8.06.755 2.573 1.338 6.384-.268 8.518-.828 1.1-2.068 1.548-3.5 1.484l.12 1.638c.343.175.951.535 1.214.775l7.441 6.438h5.276l2.962-10.438a.886.886 0 0 1 .857-.642h24.05a.882.882 0 0 1 .843 1.174l-4.849 17.099a.883.883 0 0 1-.32.462.902.902 0 0 1-.537.18h-29.42a.92.92 0 0 1-.446-.114l-2.972-1.417v6.832a.887.887 0 0 1-.893.88H4.146a.885.885 0 0 1-.893-.88V44.213c0-2.344 1.131-4.197 3.135-5.264-.08-1.532-.191-3.013-.81-3.822zm-.629-6.892a8.162 8.162 0 0 0 .987 4.276c.684-1.91 1.764-3.387 3.016-4.465 2.04-1.763 4.537-2.459 6.5-2.227 2.123-.171 3.248-.97 3.653-1.916.875-2.06-1.563-5.14-4.886-2.716-1.034.753-2.151 1.089-3.43 1.027-3.508-.167-5.686 2.84-5.84 6.02zm8.71 12.276c-1.382 1.496-5.265 1.578-6.686.136-1.276.782-1.935 1.992-1.935 3.566v14.022h11.425v-6.888l-3.98-2.673a.878.878 0 0 1-.235-1.224.9.9 0 0 1 1.24-.228l4.317 2.898 4.06 1.938h7.156v-4.31h-6.545v-.005a.9.9 0 0 1-.59-.218l-7.693-6.658a5.291 5.291 0 0 0-.535-.355zm17.336 7.235v4.31h3.171c1.91 0 2.925-2.308 1.54-3.676a2.192 2.192 0 0 0-1.54-.635h-3.17zm7.138 2.155c0 .792-.242 1.535-.658 2.156H50.41l4.363-15.393H32.575l-2.642 9.318h4.233c2.185.001 3.967 1.764 3.967 3.92zm2.343-24.293c-2.318.03-4.52-.97-6.038-2.466a8.346 8.346 0 0 1 0-11.909c3.334-3.287 8.732-3.287 12.065 0a8.346 8.346 0 0 1 0 11.91 8.585 8.585 0 0 1-6.027 2.465zm-.9-1.824V21.39c0-.486.401-.882.892-.882.495 0 .893.397.893.882v2.394a6.538 6.538 0 0 0 1.563-.396v-4.59h-4.907v4.59c.5.196 1.024.329 1.558.396zm1.659-11.602 3.309 5.222a.875.875 0 0 1 .165.513v4.447a6.6 6.6 0 0 0 .528-9.886c-2.632-2.598-6.901-2.598-9.538 0a6.602 6.602 0 0 0 .532 9.886v-4.447c0-.247.065-.335.166-.514l3.315-5.232a.898.898 0 0 1 1.523.011zm.152 3.558-.919-1.445-1.736 2.74h3.475l-.82-1.295zM36.239 17.8c0-.01.004-.025.007-.04zm3.123-16.22h2.213c1.143 0 2.068.918 2.068 2.04v.85c0 .137.077.232.21.269 1.095.29 2.161.727 3.14 1.288.12.068.243.05.34-.047.64-.628 1.078-1.198 2.072-1.198.528 0 1.06.2 1.46.599l1.565 1.542a2.025 2.025 0 0 1 0 2.887l-.607.6c-.1.099-.116.221-.047.334a12.649 12.649 0 0 1 1.3 3.105.268.268 0 0 0 .275.207c.9 0 1.62-.098 2.321.595.373.371.608.881.608 1.442v2.184c0 1.124-.93 2.04-2.068 2.04v-.003h-.861v.004a.268.268 0 0 0-.274.206 12.1 12.1 0 0 1-.55 1.592h.004a12.36 12.36 0 0 1-.755 1.51c-.07.118-.055.238.047.334.636.632 1.212 1.068 1.212 2.045 0 .513-.203 1.052-.607 1.441h.003l-1.565 1.545a2.086 2.086 0 0 1-2.92 0l-.612-.6a.263.263 0 0 0-.339-.046c-.987.56-2.04.996-3.142 1.285a.265.265 0 0 0-.209.27c0 .89.099 1.6-.607 2.292a2.06 2.06 0 0 1-1.46.595h-2.21c-1.144 0-2.068-.914-2.068-2.038v-.85a.265.265 0 0 0-.21-.27 13.091 13.091 0 0 1-3.141-1.285.267.267 0 0 0-.343.047c-.637.628-1.078 1.196-2.068 1.196-.532 0-1.06-.2-1.464-.596l-1.563-1.545a2.02 2.02 0 0 1 0-2.883l.607-.603a.255.255 0 0 0 .048-.335 12.762 12.762 0 0 1-1.305-3.1c-.033-.133-.134-.207-.272-.207-.9 0-1.62.097-2.321-.6a2.019 2.019 0 0 1-.607-1.441v-2.184c0-1.125.93-2.039 2.067-2.039h.861c.138 0 .239-.075.272-.206a12.779 12.779 0 0 1 1.305-3.105.262.262 0 0 0-.044-.335h-.003c-.637-.628-1.208-1.06-1.208-2.04h-.004c0-.514.203-1.053.603-1.442V6.92l1.563-1.542a2.078 2.078 0 0 1 1.464-.596c1.576 0 1.894 1.535 2.412 1.241a13.01 13.01 0 0 1 3.142-1.288.261.261 0 0 0 .209-.268h.004v-.85h-.004c-.002-1.123.924-2.04 2.063-2.04zm2.213 1.762h-2.213a.28.28 0 0 0-.278.279h-.004v.85h.004c0 .927-.625 1.73-1.537 1.97-.949.25-1.86.621-2.711 1.107a2.076 2.076 0 0 1-2.495-.321l-.607-.6a.282.282 0 0 0-.2-.082v-.003a.276.276 0 0 0-.198.085l-1.567 1.545-.003-.004a.29.29 0 0 0-.08.2c0 .068.026.14.083.197l.607.6v.003a2 2 0 0 1 .326 2.459c-.49.84-.866 1.74-1.122 2.677a2.06 2.06 0 0 1-1.996 1.517h-.86a.28.28 0 0 0-.282.274v2.184c0 .643 1.3-.132 2.4.7.35.269.615.646.737 1.092a10.89 10.89 0 0 0 1.121 2.677c.474.807.34 1.809-.325 2.466l-.607.6a.278.278 0 0 0 0 .392l1.565 1.545c.109.107.29.107.398 0 .58-.574.962-1.074 1.801-1.18.441-.058.897.024 1.301.256.851.485 1.763.858 2.712 1.11a2.037 2.037 0 0 1 1.537 1.97v.85c0 .15.126.279.282.279h2.209c.65 0-.134-1.284.71-2.37.27-.35.653-.61 1.105-.727a11.203 11.203 0 0 0 2.712-1.11 2.087 2.087 0 0 1 2.498.32l.608.603c.108.107.29.107.397 0l1.566-1.544v.003a.286.286 0 0 0 0-.396c-.582-.572-1.088-.95-1.197-1.778a2.02 2.02 0 0 1 .26-1.288c.248-.419.466-.854.65-1.303h.005c.18-.436.339-.895.47-1.374a2.056 2.056 0 0 1 1.996-1.513v.004h.861v-.004a.283.283 0 0 0 .282-.278v-2.185c0-.642-1.3.136-2.4-.696a2.012 2.012 0 0 1-.737-1.095 10.936 10.936 0 0 0-1.125-2.677 2.013 2.013 0 0 1 .325-2.463l.61-.599a.278.278 0 0 0 0-.393l-1.564-1.544a.287.287 0 0 0-.398 0c-.58.571-.962 1.07-1.801 1.18a2.07 2.07 0 0 1-1.305-.26 11.358 11.358 0 0 0-2.712-1.107c-.44-.115-.83-.37-1.107-.727a2.016 2.016 0 0 1-.426-1.243v-.85a.28.28 0 0 0-.28-.28z" fill="url(#uhlrd2892a)"/>
    <defs>
        <linearGradient id="uhlrd2892a" x1="3.158" y1="30.789" x2="66.933" y2="31.003" gradientUnits="userSpaceOnUse">
            <stop stop-color="#FABB46"/>
            <stop offset="1" stop-color="#FBD346"/>
        </linearGradient>
    </defs>
</svg>
