<svg width="60" height="60" viewBox="0 0 60 60" fill="none" xmlns="http://www.w3.org/2000/svg">
    <g clip-path="url(#wz3ohoyf6a)">
        <path d="M39.55 31.03c6.911 0 12.533-5.5 12.533-12.261 0-6.76-5.622-12.261-12.532-12.261s-12.533 5.5-12.533 12.26c0 6.761 5.622 12.262 12.533 12.262zm-7.37-4.508c.751-3.383 3.783-5.796 7.37-5.796 3.588 0 6.62 2.413 7.372 5.796a10.919 10.919 0 0 1-7.371 2.841c-2.845 0-5.437-1.08-7.371-2.84zm7.37-7.49c-1.735 0-3.148-1.381-3.148-3.08 0-1.698 1.413-3.08 3.149-3.08s3.148 1.382 3.148 3.08c0 1.699-1.412 3.08-3.148 3.08zm0-10.857c5.972 0 10.83 4.752 10.83 10.594 0 2.353-.789 4.529-2.12 6.289a9.069 9.069 0 0 0-2.674-3.807 9.283 9.283 0 0 0-2.921-1.662 4.698 4.698 0 0 0 1.738-3.637c0-2.617-2.177-4.747-4.852-4.747-2.676 0-4.853 2.13-4.853 4.747 0 1.459.677 2.765 1.739 3.637a9.283 9.283 0 0 0-2.922 1.662 9.071 9.071 0 0 0-2.673 3.807 10.387 10.387 0 0 1-2.12-6.29c0-5.84 4.858-10.593 10.829-10.593zm19.81 29.76c-.83-.923-2.513-1.377-4.4-.311-2.353 1.33-8.198 4.118-12.583 5.747a3.23 3.23 0 0 0-.415-2.373 3.376 3.376 0 0 0-3.035-1.63c-5.424-.002-8.934-1.427-12.031-2.684-2.816-1.142-5.247-2.13-8.124-1.448-2.905.688-5.997 3.044-9.987 7.617a2.817 2.817 0 0 0-3.159.522l-3.798 3.716a.824.824 0 0 0 0 1.179L13.57 59.756a.862.862 0 0 0 1.205 0l3.798-3.716a2.661 2.661 0 0 0 .625-2.885c2.424-.994 5.127-1.08 8.581-.877.776.045 1.591.11 2.454.177 2.047.162 4.164.329 6.21.284 4.296-.093 6.883-1.273 10.338-3.064 3.521-1.825 11.031-6.183 12.434-7.987.992-1.277 1.05-2.75.146-3.754zM17.367 54.861l-3.196 3.126L3.635 47.68l3.196-3.126a1.083 1.083 0 0 1 1.507 0l9.03 8.834c.199.195.309.457.309.737 0 .28-.11.541-.31.737zM57.86 40.678c-.988 1.27-7.305 5.155-11.877 7.524-3.24 1.679-5.657 2.786-9.579 2.87-1.958.043-4.03-.12-6.034-.278a124.81 124.81 0 0 0-2.49-.18c-3.064-.18-6.569-.243-9.737 1.175l-8.046-7.872c7.89-9.043 10.845-7.845 16.147-5.693 3.086 1.252 6.927 2.81 12.698 2.81h.032c.633-.023 1.2.282 1.525.815a1.61 1.61 0 0 1 .003 1.7c-.587.966-2.713 1.468-5.684 1.34-2.787-.118-5.591-.77-6.693-1.33a.87.87 0 0 0-.644-.048.847.847 0 0 0-.492.408.817.817 0 0 0-.06.63c.066.208.213.384.41.488 1.492.76 4.606 1.398 7.404 1.518.313.013.636.02.965.02 1.49 0 3.099-.16 4.368-.683 4.43-1.221 12.692-5.105 15.737-6.825 1.046-.591 1.91-.43 2.27-.031.353.393.27 1.007-.224 1.642zm-38.91-6.004a7.837 7.837 0 0 0 6.43-3.323c.184.244.387.475.607.69 1.365 1.335 3.034 1.818 5.104 1.474 1.494-.247 2.908.326 3.785 1.534 1.216 1.675 2.745 2.489 4.676 2.489 1.93 0 3.46-.814 4.675-2.489.877-1.208 2.292-1.78 3.786-1.534 2.07.343 3.74-.14 5.104-1.474 1.366-1.336 1.859-2.97 1.508-4.995-.253-1.46.333-2.845 1.568-3.703 1.711-1.19 2.543-2.685 2.543-4.574 0-1.889-.832-3.385-2.543-4.574-1.235-.858-1.821-2.243-1.568-3.704.35-2.025-.143-3.658-1.508-4.994-1.365-1.335-3.035-1.818-5.104-1.474-1.493.247-2.909-.326-3.785-1.534C43.01.814 41.482 0 39.55 0c-1.93 0-3.46.814-4.676 2.489-.877 1.208-2.292 1.781-3.785 1.533-2.07-.342-3.74.14-5.104 1.475-1.366 1.336-1.859 2.97-1.508 4.995.253 1.46-.333 2.845-1.568 3.703-1.711 1.189-2.543 2.685-2.543 4.574 0 .274.02.54.055.8a7.964 7.964 0 0 0-1.472-.138c-4.296 0-7.79 3.419-7.79 7.622 0 4.203 3.494 7.622 7.79 7.622zm3.12-15.905c0-1.346.564-2.338 1.828-3.216 1.78-1.237 2.625-3.233 2.26-5.34-.258-1.495.06-2.585 1.033-3.537.986-.965 2.067-1.267 3.616-1.01 2.153.357 4.193-.47 5.458-2.212.897-1.236 1.911-1.787 3.287-1.787s2.39.55 3.287 1.787c1.264 1.742 3.305 2.569 5.458 2.212 1.528-.254 2.643.058 3.616 1.01.986.964 1.294 2.022 1.032 3.537-.365 2.107.48 4.103 2.261 5.34 1.263.878 1.827 1.87 1.827 3.216s-.564 2.338-1.827 3.216c-1.78 1.237-2.626 3.233-2.26 5.34.258 1.494-.06 2.585-1.033 3.537-.986.964-2.067 1.266-3.616 1.01-2.153-.357-4.194.47-5.458 2.212-.898 1.236-1.911 1.787-3.287 1.787s-2.39-.55-3.287-1.787c-1.265-1.742-3.305-2.569-5.458-2.212-1.528.254-2.643-.058-3.616-1.01-.415-.406-.706-.831-.888-1.294.29-.808.438-1.659.438-2.515 0-3.02-1.803-5.633-4.41-6.867a3.683 3.683 0 0 1-.26-1.417zm-3.12 2.328c3.357 0 6.088 2.672 6.088 5.956 0 3.283-2.731 5.955-6.087 5.955-3.357 0-6.088-2.672-6.088-5.955 0-3.284 2.731-5.956 6.088-5.956zm-3.72 5.781a.821.821 0 0 1 .309-1.143.866.866 0 0 1 1.166.31l1.052 1.783 3.574-3.497a.862.862 0 0 1 1.199.006.824.824 0 0 1 .006 1.173l-4.36 4.264a.855.855 0 0 1-.713.237.864.864 0 0 1-.626-.41l-1.607-2.723z" fill="url(#fkpk8yscrb)"/>
    </g>
    <defs>
        <linearGradient id="fkpk8yscrb" x1="1.579" y1="30" x2="70.981" y2="30.246" gradientUnits="userSpaceOnUse">
            <stop stop-color="#FABB46"/>
            <stop offset="1" stop-color="#FBD346"/>
        </linearGradient>
        <clipPath id="wz3ohoyf6a">
            <path fill="#fff" d="M0 0h60v60H0z"/>
        </clipPath>
    </defs>
</svg>
