<svg width="38" height="38" viewBox="0 0 38 38" fill="none" xmlns="http://www.w3.org/2000/svg">
    <path d="m37.683 10.749-3.836-3.717a1.033 1.033 0 0 0-1.08-.23 1.034 1.034 0 0 0-.68.871l-.108 1.055c-4.256.506-8.067 2.947-10.356 6.515V8.205h1.139c.35 0 .657-.197.804-.514a.878.878 0 0 0-.129-.946l-3.762-4.433a.884.884 0 0 0-1.35 0l-3.762 4.433a.878.878 0 0 0-.13.946.878.878 0 0 0 .805.514h1.14v7.038c-2.29-3.568-6.101-6.01-10.357-6.515l-.108-1.055a1.034 1.034 0 0 0-.68-.872 1.033 1.033 0 0 0-1.08.23L.317 10.75c-.234.227-.344.53-.311.855.033.324.203.598.478.773l4.513 2.858c.34.215.763.217 1.104.005.342-.212.529-.592.488-.992l-.028-.268a9.23 9.23 0 0 1 6.294 5.452 9.41 9.41 0 0 0-3.278 7.141C9.577 31.771 13.804 36 19 36s9.423-4.229 9.423-9.427a9.41 9.41 0 0 0-3.278-7.14 9.23 9.23 0 0 1 6.294-5.453l-.028.268c-.041.4.146.78.487.992.342.212.765.21 1.105-.005l4.513-2.859c.275-.174.445-.448.478-.773a1.022 1.022 0 0 0-.31-.854zm-21.71-3.77L19 3.41l3.028 3.568H21.01a.613.613 0 0 0-.613.613v9.658a9.457 9.457 0 0 0-2.794 0V7.592a.613.613 0 0 0-.613-.613h-1.018zM10.996 14.9c-1.45-1.208-3.191-2-5.035-2.292a.613.613 0 0 0-.705.668l.074.719-3.992-2.529 3.393-3.288.121 1.173a.613.613 0 0 0 .56.549c4.708.384 8.887 3.364 10.83 7.658a9.385 9.385 0 0 0-2.38 1.116 10.515 10.515 0 0 0-2.866-3.774zm2.537 17.779a5.526 5.526 0 0 1 5.464-4.643h.004a5.526 5.526 0 0 1 5.464 4.643A8.163 8.163 0 0 1 19 34.774a8.163 8.163 0 0 1-5.466-2.095zm2.968-8.368A2.501 2.501 0 0 1 19 21.813a2.501 2.501 0 0 1 2.498 2.498 2.501 2.501 0 0 1-2.496 2.5h-.003a2.501 2.501 0 0 1-2.497-2.5zm10.696 2.262a8.161 8.161 0 0 1-1.725 5.026 6.748 6.748 0 0 0-4.15-4.38 3.72 3.72 0 0 0 1.4-2.908A3.729 3.729 0 0 0 19 20.586a3.729 3.729 0 0 0-3.724 3.725 3.72 3.72 0 0 0 1.4 2.908 6.748 6.748 0 0 0-4.149 4.38 8.162 8.162 0 0 1-1.724-5.026c0-4.521 3.677-8.2 8.197-8.2s8.198 3.678 8.198 8.2zm5.472-12.579.074-.718a.614.614 0 0 0-.706-.668 10.422 10.422 0 0 0-5.035 2.292 10.517 10.517 0 0 0-2.866 3.774 9.385 9.385 0 0 0-2.38-1.116c1.944-4.294 6.122-7.274 10.83-7.658a.613.613 0 0 0 .56-.549l.12-1.173 3.394 3.288-3.991 2.529z" fill="#333"/>
</svg>
