<svg width="34" height="34" viewBox="0 0 34 34" fill="none" xmlns="http://www.w3.org/2000/svg">
    <g clip-path="url(#7a6tx5edaa)">
        <path d="M34 17c0-9.389-7.611-17-17-17S0 7.611 0 17s7.611 17 17 17 17-7.611 17-17z" fill="url(#5ohatv2bjb)"/>
        <path d="M34 17c0-9.389-7.611-17-17-17S0 7.611 0 17s7.611 17 17 17 17-7.611 17-17z" fill="#fff"/>
        <path d="M16.488 23.17c-.839 0-1.66-.119-2.465-.357-.793-.25-1.462-.59-2.006-1.02l.952-1.717c.43.351.952.635 1.564.85a5.746 5.746 0 0 0 1.921.323c.793 0 1.411-.159 1.853-.476.442-.329.663-.77.663-1.326 0-.544-.204-.975-.612-1.292-.408-.317-1.065-.476-1.972-.476h-1.088v-1.513l3.4-4.046.289.833h-6.392V11.1h8.109v1.479l-3.4 4.046-1.156-.68h.663c1.462 0 2.556.329 3.281.986.737.646 1.105 1.479 1.105 2.499 0 .669-.17 1.286-.51 1.853-.34.567-.861 1.026-1.564 1.377-.691.34-1.57.51-2.635.51z" fill="#333"/>
    </g>
    <defs>
        <linearGradient id="5ohatv2bjb" x1="17" y1="0" x2="17" y2="34" gradientUnits="userSpaceOnUse">
            <stop stop-color="#F6EED8"/>
            <stop offset=".548" stop-color="#fff"/>
            <stop offset="1" stop-color="#fff"/>
        </linearGradient>
        <clipPath id="7a6tx5edaa">
            <path fill="#fff" d="M0 0h34v34H0z"/>
        </clipPath>
    </defs>
</svg>
