<svg width="38" height="38" viewBox="0 0 38 38" fill="none" xmlns="http://www.w3.org/2000/svg">
    <path d="M2.782 19.188a.82.82 0 0 0 .106-.007 60.451 60.451 0 0 0 16.622-4.75 60.238 60.238 0 0 0 14.717-9.396l-.951 3.808a.781.781 0 0 0 1.515.378l1.562-6.25A.782.782 0 0 0 35.596 2h-6.25a.781.781 0 1 0 0 1.563h4.195a58.753 58.753 0 0 1-14.672 9.444 58.878 58.878 0 0 1-16.192 4.626.782.782 0 0 0 .105 1.555zm32.814 15.626h-.781V13.72a.781.781 0 0 0-.781-.78H26.22a.781.781 0 0 0-.781.78v21.095h-1.563V18.407a.781.781 0 0 0-.781-.781h-7.813a.781.781 0 0 0-.781.781v16.407h-1.563v-11.72a.781.781 0 0 0-.781-.78H4.345a.781.781 0 0 0-.782.78v11.72h-.78a.781.781 0 1 0 0 1.563h32.813a.781.781 0 1 0 0-1.563zm-8.594-20.313h6.25v20.313h-6.25V14.501zm-10.938 4.687h6.25v15.626h-6.25V19.188zM5.126 23.876h6.25v10.938h-6.25V23.876z" fill="#333"/>
</svg>
