<svg width="60" height="60" viewBox="0 0 60 60" fill="none" xmlns="http://www.w3.org/2000/svg">
    <g clip-path="url(#dpuzxilcya)">
        <path fill-rule="evenodd" clip-rule="evenodd" d="M23.759 4.948a.979.979 0 0 1 .375 1.4l-3.239 5.609a.98.98 0 1 1-1.695-.982l1.988-3.444A24.844 24.844 0 0 0 5.972 37.233c2.788 10.405 11.966 17.803 22.575 18.4a.978.978 0 0 1 .271 1.902.98.98 0 0 1-.378.054c-11.453-.644-21.355-8.623-24.363-19.85A26.814 26.814 0 0 1 20.886 5.553L17.17 3.407a.98.98 0 1 1 .982-1.696l5.607 3.237zm6.24 9.275A5.154 5.154 0 1 0 30 24.532a5.154 5.154 0 0 0 0-10.309zm0 12.272A12.195 12.195 0 0 0 17.805 38.69v3.953h24.392V38.69A12.196 12.196 0 0 0 30 26.495zm-4.16-1.343a14.167 14.167 0 0 0-10 13.539v4.935a.982.982 0 0 0 .982.982h26.357a.982.982 0 0 0 .982-.982V38.69a14.167 14.167 0 0 0-9.998-13.539 7.118 7.118 0 1 0-8.323 0zM36.24 56.641a.98.98 0 0 1-.375-1.4l3.239-5.61a.98.98 0 1 1 1.696.983l-1.988 3.444a24.844 24.844 0 0 0 15.216-29.703C51.24 13.951 42.062 6.552 31.453 5.955A.98.98 0 0 1 31.56 4c11.453.644 21.355 8.623 24.363 19.85a26.814 26.814 0 0 1-16.809 32.188l3.716 2.145a.98.98 0 0 1-.982 1.696l-5.608-3.237z" fill="url(#kqteqvsr7b)"/>
    </g>
    <defs>
        <linearGradient id="kqteqvsr7b" x1="3.158" y1="30.794" x2="66.933" y2="31.008" gradientUnits="userSpaceOnUse">
            <stop stop-color="#FABB46"/>
            <stop offset="1" stop-color="#FBD346"/>
        </linearGradient>
        <clipPath id="dpuzxilcya">
            <path fill="#fff" d="M0 0h60v60H0z"/>
        </clipPath>
    </defs>
</svg>
