<svg width="30" height="30" viewBox="0 0 30 30" fill="none" xmlns="http://www.w3.org/2000/svg">
<circle cx="15" cy="15" r="15" fill="#3D7A74"/>
<path d="M10 10.3276C10 9.94275 10.1351 9.62529 10.4054 9.37518C10.6757 9.12506 11.027 9 11.4595 9C11.8842 9 12.2278 9.12313 12.4903 9.36941C12.7606 9.62338 12.8958 9.9543 12.8958 10.3622C12.8958 10.7316 12.7645 11.0394 12.5019 11.2857C12.2317 11.5397 11.8764 11.6667 11.4363 11.6667H11.4247C11 11.6667 10.6564 11.5397 10.3938 11.2857C10.1313 11.0317 10 10.7124 10 10.3276ZM10.1506 20.4286V12.7172H12.722V20.4286H10.1506ZM14.1467 20.4286H16.7181V16.1227C16.7181 15.8533 16.749 15.6455 16.8108 15.4993C16.9189 15.2376 17.083 15.0163 17.3031 14.8355C17.5232 14.6546 17.7992 14.5642 18.1313 14.5642C18.9961 14.5642 19.4286 15.1453 19.4286 16.3074V20.4286H22V16.0072C22 14.8682 21.7297 14.0043 21.1892 13.4156C20.6486 12.8268 19.9344 12.5325 19.0463 12.5325C18.0502 12.5325 17.2741 12.9596 16.7181 13.8139V13.8369H16.7066L16.7181 13.8139V12.7172H14.1467C14.1622 12.9634 14.1699 13.7292 14.1699 15.0144C14.1699 16.2997 14.1622 18.1044 14.1467 20.4286Z" fill="white"/>
</svg>
